<?xml version="1.0" encoding="UTF-8"?>
<svg xmlns="http://www.w3.org/2000/svg" xmlns:xlink="http://www.w3.org/1999/xlink" width="595.275591" height="841.889764" viewBox="0 0 595.275591 841.889764">
<rect x="-59.527559" y="-84.188976" width="714.330709" height="1010.267717" fill="rgb(100%, 100%, 100%)" fill-opacity="1"/>
<path fill="none" stroke-width="9" stroke-linecap="round" stroke-linejoin="round" stroke="rgb(0%, 0%, 0%)" stroke-opacity="1" stroke-miterlimit="10" d="M 38001.041667 20915.885417 L 31065.885417 20915.885417 " transform="matrix(0.015, 0, 0, 0.015, 0, 0)"/>
<path fill="none" stroke-width="9" stroke-linecap="round" stroke-linejoin="round" stroke="rgb(0%, 0%, 0%)" stroke-opacity="1" stroke-miterlimit="10" d="M 37170.052083 18800 L 38001.041667 18800 " transform="matrix(0.015, 0, 0, 0.015, 0, 0)"/>
<path fill="none" stroke-width="9" stroke-linecap="round" stroke-linejoin="round" stroke="rgb(0%, 0%, 0%)" stroke-opacity="1" stroke-miterlimit="10" d="M 37170.052083 16513.020833 L 37170.052083 18800 " transform="matrix(0.015, 0, 0, 0.015, 0, 0)"/>
<path fill="none" stroke-width="9" stroke-linecap="round" stroke-linejoin="round" stroke="rgb(0%, 0%, 0%)" stroke-opacity="1" stroke-miterlimit="10" d="M 38001.041667 18800 L 38001.041667 20915.885417 " transform="matrix(0.015, 0, 0, 0.015, 0, 0)"/>
<path fill="none" stroke-width="9" stroke-linecap="round" stroke-linejoin="round" stroke="rgb(0%, 0%, 0%)" stroke-opacity="1" stroke-miterlimit="10" d="M 31065.885417 20915.885417 L 31065.885417 24109.895833 " transform="matrix(0.015, 0, 0, 0.015, 0, 0)"/>
<path fill="none" stroke-width="9" stroke-linecap="round" stroke-linejoin="round" stroke="rgb(0%, 0%, 0%)" stroke-opacity="1" stroke-miterlimit="10" d="M 35488.020833 14888.020833 L 37170.052083 16513.020833 " transform="matrix(0.015, 0, 0, 0.015, 0, 0)"/>
<path fill="none" stroke-width="9" stroke-linecap="round" stroke-linejoin="round" stroke="rgb(0%, 0%, 0%)" stroke-opacity="1" stroke-miterlimit="10" d="M 31009.114583 13148.958333 L 35488.020833 14888.020833 " transform="matrix(0.015, 0, 0, 0.015, 0, 0)"/>
<path fill="none" stroke-width="9" stroke-linecap="round" stroke-linejoin="round" stroke="rgb(0%, 0%, 0%)" stroke-opacity="1" stroke-miterlimit="10" d="M 25907.03125 13508.072917 L 31009.114583 13148.958333 " transform="matrix(0.015, 0, 0, 0.015, 0, 0)"/>
<path fill="none" stroke-width="9" stroke-linecap="round" stroke-linejoin="round" stroke="rgb(0%, 0%, 0%)" stroke-opacity="1" stroke-miterlimit="10" d="M 31065.885417 24109.895833 L 29515.885417 25376.041667 " transform="matrix(0.015, 0, 0, 0.015, 0, 0)"/>
<path fill="none" stroke-width="9" stroke-linecap="round" stroke-linejoin="round" stroke="rgb(0%, 0%, 0%)" stroke-opacity="1" stroke-miterlimit="10" d="M 32577.083333 21180.989583 L 35809.114583 21180.989583 " transform="matrix(0.015, 0, 0, 0.015, 0, 0)"/>
<path fill="none" stroke-width="9" stroke-linecap="round" stroke-linejoin="round" stroke="rgb(0%, 0%, 0%)" stroke-opacity="1" stroke-miterlimit="10" d="M 35809.114583 21180.989583 L 35809.114583 26528.90625 " transform="matrix(0.015, 0, 0, 0.015, 0, 0)"/>
<path fill="none" stroke-width="9" stroke-linecap="round" stroke-linejoin="round" stroke="rgb(0%, 0%, 0%)" stroke-opacity="1" stroke-miterlimit="10" d="M 35809.114583 26528.90625 L 32577.083333 26528.90625 " transform="matrix(0.015, 0, 0, 0.015, 0, 0)"/>
<path fill="none" stroke-width="9" stroke-linecap="round" stroke-linejoin="round" stroke="rgb(0%, 0%, 0%)" stroke-opacity="1" stroke-miterlimit="10" d="M 32577.083333 26528.90625 L 32577.083333 21180.989583 " transform="matrix(0.015, 0, 0, 0.015, 0, 0)"/>
<path fill="none" stroke-width="9" stroke-linecap="round" stroke-linejoin="round" stroke="rgb(0%, 0%, 0%)" stroke-opacity="1" stroke-miterlimit="10" d="M 23733.072917 15625 L 25907.03125 13508.072917 " transform="matrix(0.015, 0, 0, 0.015, 0, 0)"/>
<path fill="none" stroke-width="9" stroke-linecap="round" stroke-linejoin="round" stroke="rgb(0%, 0%, 0%)" stroke-opacity="1" stroke-miterlimit="10" d="M 21844.010417 15625 L 23733.072917 15625 " transform="matrix(0.015, 0, 0, 0.015, 0, 0)"/>
<path fill="none" stroke-width="9" stroke-linecap="round" stroke-linejoin="round" stroke="rgb(0%, 0%, 0%)" stroke-opacity="1" stroke-miterlimit="10" d="M 29515.885417 25376.041667 L 19084.114583 25395.052083 " transform="matrix(0.015, 0, 0, 0.015, 0, 0)"/>
<path fill="none" stroke-width="9" stroke-linecap="round" stroke-linejoin="round" stroke="rgb(0%, 0%, 0%)" stroke-opacity="1" stroke-miterlimit="10" d="M 19084.114583 18138.020833 L 21844.010417 15625 " transform="matrix(0.015, 0, 0, 0.015, 0, 0)"/>
<path fill="none" stroke-width="9" stroke-linecap="round" stroke-linejoin="round" stroke="rgb(0%, 0%, 0%)" stroke-opacity="1" stroke-miterlimit="10" d="M 19084.114583 25395.052083 L 19084.114583 18138.020833 " transform="matrix(0.015, 0, 0, 0.015, 0, 0)"/>
<path fill-rule="nonzero" fill="rgb(0%, 0%, 0%)" fill-opacity="1" d="M 463.074219 220.078125 C 463.074219 220.671875 462.59375 221.152344 462 221.152344 C 461.40625 221.152344 460.925781 220.671875 460.925781 220.078125 C 460.925781 219.488281 461.40625 219.007812 462 219.007812 C 462.59375 219.007812 463.074219 219.488281 463.074219 220.078125 Z M 463.074219 220.078125 "/>
<path fill-rule="nonzero" fill="rgb(0%, 0%, 0%)" fill-opacity="1" d="M 321.335938 268.273438 C 321.335938 268.867188 320.855469 269.347656 320.265625 269.347656 C 319.671875 269.347656 319.191406 268.867188 319.191406 268.273438 C 319.191406 267.683594 319.671875 267.203125 320.265625 267.203125 C 320.855469 267.203125 321.335938 267.683594 321.335938 268.273438 Z M 321.335938 268.273438 "/>
<path fill-rule="nonzero" fill="rgb(0%, 0%, 0%)" fill-opacity="1" d="M 314.136719 275.878906 C 314.136719 276.703125 313.46875 277.371094 312.644531 277.371094 C 311.820312 277.371094 311.152344 276.703125 311.152344 275.878906 C 311.152344 275.054688 311.820312 274.386719 312.644531 274.386719 C 313.46875 274.386719 314.136719 275.054688 314.136719 275.878906 Z M 314.136719 275.878906 "/>
<path fill-rule="nonzero" fill="rgb(0%, 0%, 0%)" fill-opacity="1" d="M 392.199219 228.585938 C 392.199219 229.175781 391.71875 229.65625 391.125 229.65625 C 390.53125 229.65625 390.050781 229.175781 390.050781 228.585938 C 390.050781 227.992188 390.53125 227.511719 391.125 227.511719 C 391.71875 227.511719 392.199219 227.992188 392.199219 228.585938 Z M 392.199219 228.585938 "/>
<path fill-rule="nonzero" fill="rgb(0%, 0%, 0%)" fill-opacity="1" d="M 385.011719 236.203125 C 385.011719 237.027344 384.34375 237.699219 383.519531 237.699219 C 382.695312 237.699219 382.027344 237.027344 382.027344 236.203125 C 382.027344 235.378906 382.695312 234.710938 383.519531 234.710938 C 384.34375 234.710938 385.011719 235.378906 385.011719 236.203125 Z M 385.011719 236.203125 "/>
<path fill-rule="nonzero" fill="rgb(0%, 0%, 0%)" fill-opacity="1" d="M 455.871094 227.699219 C 455.871094 228.523438 455.203125 229.191406 454.378906 229.191406 C 453.554688 229.191406 452.886719 228.523438 452.886719 227.699219 C 452.886719 226.875 453.554688 226.207031 454.378906 226.207031 C 455.203125 226.207031 455.871094 226.875 455.871094 227.699219 Z M 455.871094 227.699219 "/>
<path fill-rule="nonzero" fill="rgb(0%, 0%, 0%)" fill-opacity="1" d="M 526.734375 253.199219 C 526.734375 254.023438 526.0625 254.691406 525.238281 254.691406 C 524.414062 254.691406 523.746094 254.023438 523.746094 253.199219 C 523.746094 252.375 524.414062 251.707031 525.238281 251.707031 C 526.0625 251.707031 526.734375 252.375 526.734375 253.199219 Z M 526.734375 253.199219 "/>
<path fill-rule="nonzero" fill="rgb(0%, 0%, 0%)" fill-opacity="1" d="M 533.933594 245.59375 C 533.933594 246.1875 533.453125 246.667969 532.859375 246.667969 C 532.269531 246.667969 531.789062 246.1875 531.789062 245.59375 C 531.789062 245.003906 532.269531 244.523438 532.859375 244.523438 C 533.453125 244.523438 533.933594 245.003906 533.933594 245.59375 Z M 533.933594 245.59375 "/>
<path fill-rule="nonzero" fill="rgb(0%, 0%, 0%)" fill-opacity="1" d="M 510.546875 361.664062 C 510.546875 362.488281 509.878906 363.15625 509.054688 363.15625 C 508.230469 363.15625 507.5625 362.488281 507.5625 361.664062 C 507.5625 360.839844 508.230469 360.171875 509.054688 360.171875 C 509.878906 360.171875 510.546875 360.839844 510.546875 361.664062 Z M 510.546875 361.664062 "/>
<path fill-rule="nonzero" fill="rgb(0%, 0%, 0%)" fill-opacity="1" d="M 517.734375 354.058594 C 517.734375 354.652344 517.253906 355.132812 516.660156 355.132812 C 516.066406 355.132812 515.585938 354.652344 515.585938 354.058594 C 515.585938 353.46875 516.066406 352.988281 516.660156 352.988281 C 517.253906 352.988281 517.734375 353.46875 517.734375 354.058594 Z M 517.734375 354.058594 "/>
<path fill-rule="nonzero" fill="rgb(0%, 0%, 0%)" fill-opacity="1" d="M 556.582031 306.058594 C 556.582031 306.570312 556.167969 306.984375 555.660156 306.984375 C 555.152344 306.984375 554.738281 306.570312 554.738281 306.058594 C 554.738281 305.550781 555.152344 305.136719 555.660156 305.136719 C 556.167969 305.136719 556.582031 305.550781 556.582031 306.058594 Z M 556.582031 306.058594 "/>
<path fill-rule="nonzero" fill="rgb(0%, 0%, 0%)" fill-opacity="1" d="M 556.582031 289.679688 C 556.582031 290.191406 556.167969 290.601562 555.660156 290.601562 C 555.152344 290.601562 554.738281 290.191406 554.738281 289.679688 C 554.738281 289.171875 555.152344 288.757812 555.660156 288.757812 C 556.167969 288.757812 556.582031 289.171875 556.582031 289.679688 Z M 556.582031 289.679688 "/>
<path fill-rule="nonzero" fill="rgb(0%, 0%, 0%)" fill-opacity="1" d="M 314.902344 312.929688 C 314.902344 313.730469 314.253906 314.378906 313.453125 314.378906 C 312.65625 314.378906 312.007812 313.730469 312.007812 312.929688 C 312.007812 312.128906 312.65625 311.484375 313.453125 311.484375 C 314.253906 311.484375 314.902344 312.128906 314.902344 312.929688 Z M 314.902344 312.929688 "/>
<path fill-rule="nonzero" fill="rgb(0%, 0%, 0%)" fill-opacity="1" d="M 293.300781 312.929688 C 293.300781 313.730469 292.65625 314.378906 291.855469 314.378906 C 291.054688 314.378906 290.40625 313.730469 290.40625 312.929688 C 290.40625 312.128906 291.054688 311.484375 291.855469 311.484375 C 292.65625 311.484375 293.300781 312.128906 293.300781 312.929688 Z M 293.300781 312.929688 "/>
<path fill-rule="nonzero" fill="rgb(0%, 0%, 0%)" fill-opacity="1" d="M 300.503906 312.929688 C 300.503906 313.730469 299.855469 314.378906 299.054688 314.378906 C 298.253906 314.378906 297.609375 313.730469 297.609375 312.929688 C 297.609375 312.128906 298.253906 311.484375 299.054688 311.484375 C 299.855469 311.484375 300.503906 312.128906 300.503906 312.929688 Z M 300.503906 312.929688 "/>
<path fill-rule="nonzero" fill="rgb(0%, 0%, 0%)" fill-opacity="1" d="M 307.703125 312.929688 C 307.703125 313.730469 307.054688 314.378906 306.253906 314.378906 C 305.457031 314.378906 304.808594 313.730469 304.808594 312.929688 C 304.808594 312.128906 305.457031 311.484375 306.253906 311.484375 C 307.054688 311.484375 307.703125 312.128906 307.703125 312.929688 Z M 307.703125 312.929688 "/>
<path fill-rule="nonzero" fill="rgb(0%, 0%, 0%)" fill-opacity="1" d="M 322.101562 312.929688 C 322.101562 313.730469 321.453125 314.378906 320.65625 314.378906 C 319.855469 314.378906 319.207031 313.730469 319.207031 312.929688 C 319.207031 312.128906 319.855469 311.484375 320.65625 311.484375 C 321.453125 311.484375 322.101562 312.128906 322.101562 312.929688 Z M 322.101562 312.929688 "/>
<path fill-rule="nonzero" fill="rgb(0%, 0%, 0%)" fill-opacity="1" d="M 329.300781 312.929688 C 329.300781 313.730469 328.65625 314.378906 327.855469 314.378906 C 327.054688 314.378906 326.40625 313.730469 326.40625 312.929688 C 326.40625 312.128906 327.054688 311.484375 327.855469 311.484375 C 328.65625 311.484375 329.300781 312.128906 329.300781 312.929688 Z M 329.300781 312.929688 "/>
<path fill-rule="nonzero" fill="rgb(0%, 0%, 0%)" fill-opacity="1" d="M 336.503906 312.929688 C 336.503906 313.730469 335.855469 314.378906 335.054688 314.378906 C 334.253906 314.378906 333.609375 313.730469 333.609375 312.929688 C 333.609375 312.128906 334.253906 311.484375 335.054688 311.484375 C 335.855469 311.484375 336.503906 312.128906 336.503906 312.929688 Z M 336.503906 312.929688 "/>
<path fill-rule="nonzero" fill="rgb(0%, 0%, 0%)" fill-opacity="1" d="M 329.300781 363.328125 C 329.300781 364.128906 328.65625 364.777344 327.855469 364.777344 C 327.054688 364.777344 326.40625 364.128906 326.40625 363.328125 C 326.40625 362.53125 327.054688 361.882812 327.855469 361.882812 C 328.65625 361.882812 329.300781 362.53125 329.300781 363.328125 Z M 329.300781 363.328125 "/>
<path fill-rule="nonzero" fill="rgb(0%, 0%, 0%)" fill-opacity="1" d="M 350.902344 363.328125 C 350.902344 364.128906 350.253906 364.777344 349.453125 364.777344 C 348.65625 364.777344 348.007812 364.128906 348.007812 363.328125 C 348.007812 362.53125 348.65625 361.882812 349.453125 361.882812 C 350.253906 361.882812 350.902344 362.53125 350.902344 363.328125 Z M 350.902344 363.328125 "/>
<path fill-rule="nonzero" fill="rgb(0%, 0%, 0%)" fill-opacity="1" d="M 343.703125 363.328125 C 343.703125 364.128906 343.054688 364.777344 342.253906 364.777344 C 341.457031 364.777344 340.808594 364.128906 340.808594 363.328125 C 340.808594 362.53125 341.457031 361.882812 342.253906 361.882812 C 343.054688 361.882812 343.703125 362.53125 343.703125 363.328125 Z M 343.703125 363.328125 "/>
<path fill-rule="nonzero" fill="rgb(0%, 0%, 0%)" fill-opacity="1" d="M 336.503906 363.328125 C 336.503906 364.128906 335.855469 364.777344 335.054688 364.777344 C 334.253906 364.777344 333.609375 364.128906 333.609375 363.328125 C 333.609375 362.53125 334.253906 361.882812 335.054688 361.882812 C 335.855469 361.882812 336.503906 362.53125 336.503906 363.328125 Z M 336.503906 363.328125 "/>
<path fill-rule="nonzero" fill="rgb(0%, 0%, 0%)" fill-opacity="1" d="M 322.101562 363.328125 C 322.101562 364.128906 321.453125 364.777344 320.65625 364.777344 C 319.855469 364.777344 319.207031 364.128906 319.207031 363.328125 C 319.207031 362.53125 319.855469 361.882812 320.65625 361.882812 C 321.453125 361.882812 322.101562 362.53125 322.101562 363.328125 Z M 322.101562 363.328125 "/>
<path fill-rule="nonzero" fill="rgb(0%, 0%, 0%)" fill-opacity="1" d="M 300.503906 363.328125 C 300.503906 364.128906 299.855469 364.777344 299.054688 364.777344 C 298.253906 364.777344 297.609375 364.128906 297.609375 363.328125 C 297.609375 362.53125 298.253906 361.882812 299.054688 361.882812 C 299.855469 361.882812 300.503906 362.53125 300.503906 363.328125 Z M 300.503906 363.328125 "/>
<path fill-rule="nonzero" fill="rgb(0%, 0%, 0%)" fill-opacity="1" d="M 314.902344 363.328125 C 314.902344 364.128906 314.253906 364.777344 313.453125 364.777344 C 312.65625 364.777344 312.007812 364.128906 312.007812 363.328125 C 312.007812 362.53125 312.65625 361.882812 313.453125 361.882812 C 314.253906 361.882812 314.902344 362.53125 314.902344 363.328125 Z M 314.902344 363.328125 "/>
<path fill-rule="nonzero" fill="rgb(0%, 0%, 0%)" fill-opacity="1" d="M 307.703125 363.328125 C 307.703125 364.128906 307.054688 364.777344 306.253906 364.777344 C 305.457031 364.777344 304.808594 364.128906 304.808594 363.328125 C 304.808594 362.53125 305.457031 361.882812 306.253906 361.882812 C 307.054688 361.882812 307.703125 362.53125 307.703125 363.328125 Z M 307.703125 363.328125 "/>
<path fill-rule="nonzero" fill="rgb(0%, 0%, 0%)" fill-opacity="1" d="M 293.300781 363.328125 C 293.300781 364.128906 292.65625 364.777344 291.855469 364.777344 C 291.054688 364.777344 290.40625 364.128906 290.40625 363.328125 C 290.40625 362.53125 291.054688 361.882812 291.855469 361.882812 C 292.65625 361.882812 293.300781 362.53125 293.300781 363.328125 Z M 293.300781 363.328125 "/>
<path fill-rule="nonzero" fill="rgb(0%, 0%, 0%)" fill-opacity="1" d="M 295.628906 295.183594 C 295.628906 295.503906 295.367188 295.761719 295.050781 295.761719 C 294.730469 295.761719 294.472656 295.503906 294.472656 295.183594 C 294.472656 294.867188 294.730469 294.609375 295.050781 294.609375 C 295.367188 294.609375 295.628906 294.867188 295.628906 295.183594 Z M 295.628906 295.183594 "/>
<path fill-rule="nonzero" fill="rgb(0%, 0%, 0%)" fill-opacity="1" d="M 298.941406 293.804688 C 298.941406 294.125 298.683594 294.382812 298.363281 294.382812 C 298.046875 294.382812 297.789062 294.125 297.789062 293.804688 C 297.789062 293.484375 298.046875 293.226562 298.363281 293.226562 C 298.683594 293.226562 298.941406 293.484375 298.941406 293.804688 Z M 298.941406 293.804688 "/>
<path fill-rule="nonzero" fill="rgb(0%, 0%, 0%)" fill-opacity="1" d="M 298.941406 287.191406 C 298.941406 287.507812 298.683594 287.765625 298.363281 287.765625 C 298.046875 287.765625 297.789062 287.507812 297.789062 287.191406 C 297.789062 286.871094 298.046875 286.613281 298.363281 286.613281 C 298.683594 286.613281 298.941406 286.871094 298.941406 287.191406 Z M 298.941406 287.191406 "/>
<path fill-rule="nonzero" fill="rgb(0%, 0%, 0%)" fill-opacity="1" d="M 300.308594 290.503906 C 300.308594 290.824219 300.050781 291.082031 299.730469 291.082031 C 299.410156 291.082031 299.152344 290.824219 299.152344 290.503906 C 299.152344 290.1875 299.410156 289.925781 299.730469 289.925781 C 300.050781 289.925781 300.308594 290.1875 300.308594 290.503906 Z M 300.308594 290.503906 "/>
<path fill-rule="nonzero" fill="rgb(0%, 0%, 0%)" fill-opacity="1" d="M 298.175781 290.503906 C 298.175781 292.230469 296.777344 293.632812 295.050781 293.632812 C 293.324219 293.632812 291.921875 292.230469 291.921875 290.503906 C 291.921875 288.777344 293.324219 287.378906 295.050781 287.378906 C 296.777344 287.378906 298.175781 288.777344 298.175781 290.503906 Z M 298.175781 290.503906 "/>
<path fill-rule="nonzero" fill="rgb(0%, 0%, 0%)" fill-opacity="1" d="M 290.949219 290.503906 C 290.949219 290.824219 290.6875 291.082031 290.371094 291.082031 C 290.050781 291.082031 289.792969 290.824219 289.792969 290.503906 C 289.792969 290.1875 290.050781 289.925781 290.371094 289.925781 C 290.6875 289.925781 290.949219 290.1875 290.949219 290.503906 Z M 290.949219 290.503906 "/>
<path fill-rule="nonzero" fill="rgb(0%, 0%, 0%)" fill-opacity="1" d="M 292.328125 293.804688 C 292.328125 294.125 292.070312 294.382812 291.75 294.382812 C 291.429688 294.382812 291.171875 294.125 291.171875 293.804688 C 291.171875 293.484375 291.429688 293.226562 291.75 293.226562 C 292.070312 293.226562 292.328125 293.484375 292.328125 293.804688 Z M 292.328125 293.804688 "/>
<path fill-rule="nonzero" fill="rgb(0%, 0%, 0%)" fill-opacity="1" d="M 292.328125 287.191406 C 292.328125 287.507812 292.070312 287.765625 291.75 287.765625 C 291.429688 287.765625 291.171875 287.507812 291.171875 287.191406 C 291.171875 286.871094 291.429688 286.613281 291.75 286.613281 C 292.070312 286.613281 292.328125 286.871094 292.328125 287.191406 Z M 292.328125 287.191406 "/>
<path fill-rule="nonzero" fill="rgb(0%, 0%, 0%)" fill-opacity="1" d="M 295.628906 285.824219 C 295.628906 286.144531 295.367188 286.402344 295.050781 286.402344 C 294.730469 286.402344 294.472656 286.144531 294.472656 285.824219 C 294.472656 285.507812 294.730469 285.246094 295.050781 285.246094 C 295.367188 285.246094 295.628906 285.507812 295.628906 285.824219 Z M 295.628906 285.824219 "/>
<path fill-rule="nonzero" fill="rgb(0%, 0%, 0%)" fill-opacity="1" d="M 365.300781 363.328125 C 365.300781 364.128906 364.65625 364.777344 363.855469 364.777344 C 363.054688 364.777344 362.40625 364.128906 362.40625 363.328125 C 362.40625 362.53125 363.054688 361.882812 363.855469 361.882812 C 364.65625 361.882812 365.300781 362.53125 365.300781 363.328125 Z M 365.300781 363.328125 "/>
<path fill-rule="nonzero" fill="rgb(0%, 0%, 0%)" fill-opacity="1" d="M 386.902344 363.328125 C 386.902344 364.128906 386.253906 364.777344 385.453125 364.777344 C 384.65625 364.777344 384.007812 364.128906 384.007812 363.328125 C 384.007812 362.53125 384.65625 361.882812 385.453125 361.882812 C 386.253906 361.882812 386.902344 362.53125 386.902344 363.328125 Z M 386.902344 363.328125 "/>
<path fill-rule="nonzero" fill="rgb(0%, 0%, 0%)" fill-opacity="1" d="M 379.703125 363.328125 C 379.703125 364.128906 379.054688 364.777344 378.253906 364.777344 C 377.457031 364.777344 376.808594 364.128906 376.808594 363.328125 C 376.808594 362.53125 377.457031 361.882812 378.253906 361.882812 C 379.054688 361.882812 379.703125 362.53125 379.703125 363.328125 Z M 379.703125 363.328125 "/>
<path fill-rule="nonzero" fill="rgb(0%, 0%, 0%)" fill-opacity="1" d="M 372.503906 363.328125 C 372.503906 364.128906 371.855469 364.777344 371.054688 364.777344 C 370.253906 364.777344 369.609375 364.128906 369.609375 363.328125 C 369.609375 362.53125 370.253906 361.882812 371.054688 361.882812 C 371.855469 361.882812 372.503906 362.53125 372.503906 363.328125 Z M 372.503906 363.328125 "/>
<path fill-rule="nonzero" fill="rgb(0%, 0%, 0%)" fill-opacity="1" d="M 358.101562 363.328125 C 358.101562 364.128906 357.453125 364.777344 356.65625 364.777344 C 355.855469 364.777344 355.207031 364.128906 355.207031 363.328125 C 355.207031 362.53125 355.855469 361.882812 356.65625 361.882812 C 357.453125 361.882812 358.101562 362.53125 358.101562 363.328125 Z M 358.101562 363.328125 "/>
<path fill-rule="nonzero" fill="rgb(0%, 0%, 0%)" fill-opacity="1" d="M 401.300781 312.929688 C 401.300781 313.730469 400.65625 314.378906 399.855469 314.378906 C 399.054688 314.378906 398.40625 313.730469 398.40625 312.929688 C 398.40625 312.128906 399.054688 311.484375 399.855469 311.484375 C 400.65625 311.484375 401.300781 312.128906 401.300781 312.929688 Z M 401.300781 312.929688 "/>
<path fill-rule="nonzero" fill="rgb(0%, 0%, 0%)" fill-opacity="1" d="M 408.503906 312.929688 C 408.503906 313.730469 407.855469 314.378906 407.054688 314.378906 C 406.253906 314.378906 405.609375 313.730469 405.609375 312.929688 C 405.609375 312.128906 406.253906 311.484375 407.054688 311.484375 C 407.855469 311.484375 408.503906 312.128906 408.503906 312.929688 Z M 408.503906 312.929688 "/>
<path fill-rule="nonzero" fill="rgb(0%, 0%, 0%)" fill-opacity="1" d="M 415.703125 312.929688 C 415.703125 313.730469 415.054688 314.378906 414.253906 314.378906 C 413.457031 314.378906 412.808594 313.730469 412.808594 312.929688 C 412.808594 312.128906 413.457031 311.484375 414.253906 311.484375 C 415.054688 311.484375 415.703125 312.128906 415.703125 312.929688 Z M 415.703125 312.929688 "/>
<path fill-rule="nonzero" fill="rgb(0%, 0%, 0%)" fill-opacity="1" d="M 394.101562 312.929688 C 394.101562 313.730469 393.453125 314.378906 392.65625 314.378906 C 391.855469 314.378906 391.207031 313.730469 391.207031 312.929688 C 391.207031 312.128906 391.855469 311.484375 392.65625 311.484375 C 393.453125 311.484375 394.101562 312.128906 394.101562 312.929688 Z M 394.101562 312.929688 "/>
<path fill-rule="nonzero" fill="rgb(0%, 0%, 0%)" fill-opacity="1" d="M 386.902344 312.929688 C 386.902344 313.730469 386.253906 314.378906 385.453125 314.378906 C 384.65625 314.378906 384.007812 313.730469 384.007812 312.929688 C 384.007812 312.128906 384.65625 311.484375 385.453125 311.484375 C 386.253906 311.484375 386.902344 312.128906 386.902344 312.929688 Z M 386.902344 312.929688 "/>
<path fill-rule="nonzero" fill="rgb(0%, 0%, 0%)" fill-opacity="1" d="M 430.101562 312.929688 C 430.101562 313.730469 429.453125 314.378906 428.65625 314.378906 C 427.855469 314.378906 427.207031 313.730469 427.207031 312.929688 C 427.207031 312.128906 427.855469 311.484375 428.65625 311.484375 C 429.453125 311.484375 430.101562 312.128906 430.101562 312.929688 Z M 430.101562 312.929688 "/>
<path fill-rule="nonzero" fill="rgb(0%, 0%, 0%)" fill-opacity="1" d="M 422.902344 363.328125 C 422.902344 364.128906 422.253906 364.777344 421.453125 364.777344 C 420.65625 364.777344 420.007812 364.128906 420.007812 363.328125 C 420.007812 362.53125 420.65625 361.882812 421.453125 361.882812 C 422.253906 361.882812 422.902344 362.53125 422.902344 363.328125 Z M 422.902344 363.328125 "/>
<path fill-rule="nonzero" fill="rgb(0%, 0%, 0%)" fill-opacity="1" d="M 415.703125 363.328125 C 415.703125 364.128906 415.054688 364.777344 414.253906 364.777344 C 413.457031 364.777344 412.808594 364.128906 412.808594 363.328125 C 412.808594 362.53125 413.457031 361.882812 414.253906 361.882812 C 415.054688 361.882812 415.703125 362.53125 415.703125 363.328125 Z M 415.703125 363.328125 "/>
<path fill-rule="nonzero" fill="rgb(0%, 0%, 0%)" fill-opacity="1" d="M 408.503906 363.328125 C 408.503906 364.128906 407.855469 364.777344 407.054688 364.777344 C 406.253906 364.777344 405.609375 364.128906 405.609375 363.328125 C 405.609375 362.53125 406.253906 361.882812 407.054688 361.882812 C 407.855469 361.882812 408.503906 362.53125 408.503906 363.328125 Z M 408.503906 363.328125 "/>
<path fill-rule="nonzero" fill="rgb(0%, 0%, 0%)" fill-opacity="1" d="M 401.300781 363.328125 C 401.300781 364.128906 400.65625 364.777344 399.855469 364.777344 C 399.054688 364.777344 398.40625 364.128906 398.40625 363.328125 C 398.40625 362.53125 399.054688 361.882812 399.855469 361.882812 C 400.65625 361.882812 401.300781 362.53125 401.300781 363.328125 Z M 401.300781 363.328125 "/>
<path fill-rule="nonzero" fill="rgb(0%, 0%, 0%)" fill-opacity="1" d="M 394.101562 363.328125 C 394.101562 364.128906 393.453125 364.777344 392.65625 364.777344 C 391.855469 364.777344 391.207031 364.128906 391.207031 363.328125 C 391.207031 362.53125 391.855469 361.882812 392.65625 361.882812 C 393.453125 361.882812 394.101562 362.53125 394.101562 363.328125 Z M 394.101562 363.328125 "/>
<path fill-rule="nonzero" fill="rgb(0%, 0%, 0%)" fill-opacity="1" d="M 430.101562 363.328125 C 430.101562 364.128906 429.453125 364.777344 428.65625 364.777344 C 427.855469 364.777344 427.207031 364.128906 427.207031 363.328125 C 427.207031 362.53125 427.855469 361.882812 428.65625 361.882812 C 429.453125 361.882812 430.101562 362.53125 430.101562 363.328125 Z M 430.101562 363.328125 "/>
<path fill-rule="nonzero" fill="rgb(0%, 0%, 0%)" fill-opacity="1" d="M 429.441406 345.328125 C 429.441406 346.128906 428.792969 346.777344 427.996094 346.777344 C 427.195312 346.777344 426.546875 346.128906 426.546875 345.328125 C 426.546875 344.53125 427.195312 343.882812 427.996094 343.882812 C 428.792969 343.882812 429.441406 344.53125 429.441406 345.328125 Z M 429.441406 345.328125 "/>
<path fill-rule="nonzero" fill="rgb(0%, 0%, 0%)" fill-opacity="1" d="M 429.441406 338.128906 C 429.441406 338.929688 428.792969 339.578125 427.996094 339.578125 C 427.195312 339.578125 426.546875 338.929688 426.546875 338.128906 C 426.546875 337.332031 427.195312 336.683594 427.996094 336.683594 C 428.792969 336.683594 429.441406 337.332031 429.441406 338.128906 Z M 429.441406 338.128906 "/>
<path fill-rule="nonzero" fill="rgb(0%, 0%, 0%)" fill-opacity="1" d="M 429.441406 330.929688 C 429.441406 331.730469 428.792969 332.378906 427.996094 332.378906 C 427.195312 332.378906 426.546875 331.730469 426.546875 330.929688 C 426.546875 330.128906 427.195312 329.484375 427.996094 329.484375 C 428.792969 329.484375 429.441406 330.128906 429.441406 330.929688 Z M 429.441406 330.929688 "/>
<path fill-rule="nonzero" fill="rgb(0%, 0%, 0%)" fill-opacity="1" d="M 456.21875 359.953125 C 456.21875 361.683594 454.816406 363.082031 453.089844 363.082031 C 451.363281 363.082031 449.960938 361.683594 449.960938 359.953125 C 449.960938 358.226562 451.363281 356.828125 453.089844 356.828125 C 454.816406 356.828125 456.21875 358.226562 456.21875 359.953125 Z M 456.21875 359.953125 "/>
<path fill-rule="nonzero" fill="rgb(0%, 0%, 0%)" fill-opacity="1" d="M 448.988281 359.953125 C 448.988281 360.273438 448.730469 360.53125 448.410156 360.53125 C 448.089844 360.53125 447.832031 360.273438 447.832031 359.953125 C 447.832031 359.636719 448.089844 359.378906 448.410156 359.378906 C 448.730469 359.378906 448.988281 359.636719 448.988281 359.953125 Z M 448.988281 359.953125 "/>
<path fill-rule="nonzero" fill="rgb(0%, 0%, 0%)" fill-opacity="1" d="M 450.351562 356.640625 C 450.351562 356.957031 450.09375 357.21875 449.773438 357.21875 C 449.457031 357.21875 449.199219 356.957031 449.199219 356.640625 C 449.199219 356.320312 449.457031 356.0625 449.773438 356.0625 C 450.09375 356.0625 450.351562 356.320312 450.351562 356.640625 Z M 450.351562 356.640625 "/>
<path fill-rule="nonzero" fill="rgb(0%, 0%, 0%)" fill-opacity="1" d="M 450.351562 363.253906 C 450.351562 363.574219 450.09375 363.832031 449.773438 363.832031 C 449.457031 363.832031 449.199219 363.574219 449.199219 363.253906 C 449.199219 362.9375 449.457031 362.675781 449.773438 362.675781 C 450.09375 362.675781 450.351562 362.9375 450.351562 363.253906 Z M 450.351562 363.253906 "/>
<path fill-rule="nonzero" fill="rgb(0%, 0%, 0%)" fill-opacity="1" d="M 453.667969 364.621094 C 453.667969 364.9375 453.410156 365.199219 453.089844 365.199219 C 452.769531 365.199219 452.511719 364.9375 452.511719 364.621094 C 452.511719 364.300781 452.769531 364.042969 453.089844 364.042969 C 453.410156 364.042969 453.667969 364.300781 453.667969 364.621094 Z M 453.667969 364.621094 "/>
<path fill-rule="nonzero" fill="rgb(0%, 0%, 0%)" fill-opacity="1" d="M 456.96875 363.253906 C 456.96875 363.574219 456.707031 363.832031 456.390625 363.832031 C 456.070312 363.832031 455.8125 363.574219 455.8125 363.253906 C 455.8125 362.9375 456.070312 362.675781 456.390625 362.675781 C 456.707031 362.675781 456.96875 362.9375 456.96875 363.253906 Z M 456.96875 363.253906 "/>
<path fill-rule="nonzero" fill="rgb(0%, 0%, 0%)" fill-opacity="1" d="M 453.667969 355.273438 C 453.667969 355.59375 453.410156 355.851562 453.089844 355.851562 C 452.769531 355.851562 452.511719 355.59375 452.511719 355.273438 C 452.511719 354.957031 452.769531 354.699219 453.089844 354.699219 C 453.410156 354.699219 453.667969 354.957031 453.667969 355.273438 Z M 453.667969 355.273438 "/>
<path fill-rule="nonzero" fill="rgb(0%, 0%, 0%)" fill-opacity="1" d="M 456.96875 356.640625 C 456.96875 356.957031 456.707031 357.21875 456.390625 357.21875 C 456.070312 357.21875 455.8125 356.957031 455.8125 356.640625 C 455.8125 356.320312 456.070312 356.0625 456.390625 356.0625 C 456.707031 356.0625 456.96875 356.320312 456.96875 356.640625 Z M 456.96875 356.640625 "/>
<path fill-rule="nonzero" fill="rgb(0%, 0%, 0%)" fill-opacity="1" d="M 458.347656 359.953125 C 458.347656 360.273438 458.089844 360.53125 457.769531 360.53125 C 457.449219 360.53125 457.191406 360.273438 457.191406 359.953125 C 457.191406 359.636719 457.449219 359.378906 457.769531 359.378906 C 458.089844 359.378906 458.347656 359.636719 458.347656 359.953125 Z M 458.347656 359.953125 "/>
<path fill-rule="nonzero" fill="rgb(0%, 0%, 0%)" fill-opacity="1" d="M 350.902344 312.929688 C 350.902344 313.730469 350.253906 314.378906 349.453125 314.378906 C 348.65625 314.378906 348.007812 313.730469 348.007812 312.929688 C 348.007812 312.128906 348.65625 311.484375 349.453125 311.484375 C 350.253906 311.484375 350.902344 312.128906 350.902344 312.929688 Z M 350.902344 312.929688 "/>
<path fill-rule="nonzero" fill="rgb(0%, 0%, 0%)" fill-opacity="1" d="M 358.101562 312.929688 C 358.101562 313.730469 357.453125 314.378906 356.65625 314.378906 C 355.855469 314.378906 355.207031 313.730469 355.207031 312.929688 C 355.207031 312.128906 355.855469 311.484375 356.65625 311.484375 C 357.453125 311.484375 358.101562 312.128906 358.101562 312.929688 Z M 358.101562 312.929688 "/>
<path fill-rule="nonzero" fill="rgb(0%, 0%, 0%)" fill-opacity="1" d="M 365.300781 312.929688 C 365.300781 313.730469 364.65625 314.378906 363.855469 314.378906 C 363.054688 314.378906 362.40625 313.730469 362.40625 312.929688 C 362.40625 312.128906 363.054688 311.484375 363.855469 311.484375 C 364.65625 311.484375 365.300781 312.128906 365.300781 312.929688 Z M 365.300781 312.929688 "/>
<path fill-rule="nonzero" fill="rgb(0%, 0%, 0%)" fill-opacity="1" d="M 372.503906 312.929688 C 372.503906 313.730469 371.855469 314.378906 371.054688 314.378906 C 370.253906 314.378906 369.609375 313.730469 369.609375 312.929688 C 369.609375 312.128906 370.253906 311.484375 371.054688 311.484375 C 371.855469 311.484375 372.503906 312.128906 372.503906 312.929688 Z M 372.503906 312.929688 "/>
<path fill-rule="nonzero" fill="rgb(0%, 0%, 0%)" fill-opacity="1" d="M 379.703125 312.929688 C 379.703125 313.730469 379.054688 314.378906 378.253906 314.378906 C 377.457031 314.378906 376.808594 313.730469 376.808594 312.929688 C 376.808594 312.128906 377.457031 311.484375 378.253906 311.484375 C 379.054688 311.484375 379.703125 312.128906 379.703125 312.929688 Z M 379.703125 312.929688 "/>
<path fill-rule="nonzero" fill="rgb(0%, 0%, 0%)" fill-opacity="1" d="M 343.703125 312.929688 C 343.703125 313.730469 343.054688 314.378906 342.253906 314.378906 C 341.457031 314.378906 340.808594 313.730469 340.808594 312.929688 C 340.808594 312.128906 341.457031 311.484375 342.253906 311.484375 C 343.054688 311.484375 343.703125 312.128906 343.703125 312.929688 Z M 343.703125 312.929688 "/>
<path fill-rule="nonzero" fill="rgb(0%, 0%, 0%)" fill-opacity="1" d="M 422.902344 312.929688 C 422.902344 313.730469 422.253906 314.378906 421.453125 314.378906 C 420.65625 314.378906 420.007812 313.730469 420.007812 312.929688 C 420.007812 312.128906 420.65625 311.484375 421.453125 311.484375 C 422.253906 311.484375 422.902344 312.128906 422.902344 312.929688 Z M 422.902344 312.929688 "/>
<path fill-rule="nonzero" fill="rgb(0%, 0%, 0%)" fill-opacity="1" d="M 417.890625 218.128906 C 417.890625 218.449219 417.632812 218.707031 417.316406 218.707031 C 416.996094 218.707031 416.738281 218.449219 416.738281 218.128906 C 416.738281 217.8125 416.996094 217.550781 417.316406 217.550781 C 417.632812 217.550781 417.890625 217.8125 417.890625 218.128906 Z M 417.890625 218.128906 "/>
<path fill-rule="nonzero" fill="rgb(0%, 0%, 0%)" fill-opacity="1" d="M 417.890625 211.515625 C 417.890625 211.832031 417.632812 212.09375 417.316406 212.09375 C 416.996094 212.09375 416.738281 211.832031 416.738281 211.515625 C 416.738281 211.195312 416.996094 210.9375 417.316406 210.9375 C 417.632812 210.9375 417.890625 211.195312 417.890625 211.515625 Z M 417.890625 211.515625 "/>
<path fill-rule="nonzero" fill="rgb(0%, 0%, 0%)" fill-opacity="1" d="M 416.527344 214.816406 C 416.527344 215.132812 416.269531 215.390625 415.949219 215.390625 C 415.632812 215.390625 415.371094 215.132812 415.371094 214.816406 C 415.371094 214.496094 415.632812 214.238281 415.949219 214.238281 C 416.269531 214.238281 416.527344 214.496094 416.527344 214.816406 Z M 416.527344 214.816406 "/>
<path fill-rule="nonzero" fill="rgb(0%, 0%, 0%)" fill-opacity="1" d="M 421.207031 210.136719 C 421.207031 210.453125 420.949219 210.710938 420.628906 210.710938 C 420.3125 210.710938 420.050781 210.453125 420.050781 210.136719 C 420.050781 209.816406 420.3125 209.558594 420.628906 209.558594 C 420.949219 209.558594 421.207031 209.816406 421.207031 210.136719 Z M 421.207031 210.136719 "/>
<path fill-rule="nonzero" fill="rgb(0%, 0%, 0%)" fill-opacity="1" d="M 544.132812 269.144531 C 544.132812 269.464844 543.875 269.722656 543.554688 269.722656 C 543.234375 269.722656 542.976562 269.464844 542.976562 269.144531 C 542.976562 268.824219 543.234375 268.566406 543.554688 268.566406 C 543.875 268.566406 544.132812 268.824219 544.132812 269.144531 Z M 544.132812 269.144531 "/>
<path fill-rule="nonzero" fill="rgb(0%, 0%, 0%)" fill-opacity="1" d="M 550.746094 275.761719 C 550.746094 276.078125 550.488281 276.335938 550.171875 276.335938 C 549.851562 276.335938 549.59375 276.078125 549.59375 275.761719 C 549.59375 275.441406 549.851562 275.183594 550.171875 275.183594 C 550.488281 275.183594 550.746094 275.441406 550.746094 275.761719 Z M 550.746094 275.761719 "/>
<path fill-rule="nonzero" fill="rgb(0%, 0%, 0%)" fill-opacity="1" d="M 550.746094 269.144531 C 550.746094 269.464844 550.488281 269.722656 550.171875 269.722656 C 549.851562 269.722656 549.59375 269.464844 549.59375 269.144531 C 549.59375 268.824219 549.851562 268.566406 550.171875 268.566406 C 550.488281 268.566406 550.746094 268.824219 550.746094 269.144531 Z M 550.746094 269.144531 "/>
<path fill-rule="nonzero" fill="rgb(0%, 0%, 0%)" fill-opacity="1" d="M 544.132812 275.761719 C 544.132812 276.078125 543.875 276.335938 543.554688 276.335938 C 543.234375 276.335938 542.976562 276.078125 542.976562 275.761719 C 542.976562 275.441406 543.234375 275.183594 543.554688 275.183594 C 543.875 275.183594 544.132812 275.441406 544.132812 275.761719 Z M 544.132812 275.761719 "/>
<path fill="none" stroke-width="113" stroke-linecap="round" stroke-linejoin="round" stroke="rgb(0%, 0%, 0%)" stroke-opacity="1" stroke-miterlimit="10" d="M 36840.104167 19041.927083 L 37047.916667 19041.927083 " transform="matrix(0.015, 0, 0, 0.015, 0, 0)"/>
<path fill="none" stroke-width="113" stroke-linecap="round" stroke-linejoin="round" stroke="rgb(0%, 0%, 0%)" stroke-opacity="1" stroke-miterlimit="10" d="M 36840.104167 20673.958333 L 37047.916667 20673.958333 " transform="matrix(0.015, 0, 0, 0.015, 0, 0)"/>
<path fill="none" stroke-width="113" stroke-linecap="round" stroke-linejoin="round" stroke="rgb(0%, 0%, 0%)" stroke-opacity="1" stroke-miterlimit="10" d="M 37677.083333 20673.958333 L 37790.104167 20673.958333 " transform="matrix(0.015, 0, 0, 0.015, 0, 0)"/>
<path fill="none" stroke-width="113" stroke-linecap="round" stroke-linejoin="round" stroke="rgb(0%, 0%, 0%)" stroke-opacity="1" stroke-miterlimit="10" d="M 37677.083333 19041.927083 L 37790.104167 19041.927083 " transform="matrix(0.015, 0, 0, 0.015, 0, 0)"/>
<path fill-rule="nonzero" fill="rgb(0%, 0%, 0%)" fill-opacity="1" d="M 424.507812 218.128906 C 424.507812 218.449219 424.25 218.707031 423.929688 218.707031 C 423.609375 218.707031 423.351562 218.449219 423.351562 218.128906 C 423.351562 217.8125 423.609375 217.550781 423.929688 217.550781 C 424.25 217.550781 424.507812 217.8125 424.507812 218.128906 Z M 424.507812 218.128906 "/>
<path fill-rule="nonzero" fill="rgb(0%, 0%, 0%)" fill-opacity="1" d="M 421.207031 219.496094 C 421.207031 219.8125 420.949219 220.074219 420.628906 220.074219 C 420.3125 220.074219 420.050781 219.8125 420.050781 219.496094 C 420.050781 219.175781 420.3125 218.917969 420.628906 218.917969 C 420.949219 218.917969 421.207031 219.175781 421.207031 219.496094 Z M 421.207031 219.496094 "/>
<path fill-rule="nonzero" fill="rgb(0%, 0%, 0%)" fill-opacity="1" d="M 423.757812 214.816406 C 423.757812 216.542969 422.355469 217.941406 420.628906 217.941406 C 418.902344 217.941406 417.503906 216.542969 417.503906 214.816406 C 417.503906 213.085938 418.902344 211.6875 420.628906 211.6875 C 422.355469 211.6875 423.757812 213.085938 423.757812 214.816406 Z M 423.757812 214.816406 "/>
<path fill-rule="nonzero" fill="rgb(0%, 0%, 0%)" fill-opacity="1" d="M 424.507812 211.515625 C 424.507812 211.832031 424.25 212.09375 423.929688 212.09375 C 423.609375 212.09375 423.351562 211.832031 423.351562 211.515625 C 423.351562 211.195312 423.609375 210.9375 423.929688 210.9375 C 424.25 210.9375 424.507812 211.195312 424.507812 211.515625 Z M 424.507812 211.515625 "/>
<path fill-rule="nonzero" fill="rgb(0%, 0%, 0%)" fill-opacity="1" d="M 425.886719 214.816406 C 425.886719 215.132812 425.628906 215.390625 425.308594 215.390625 C 424.992188 215.390625 424.734375 215.132812 424.734375 214.816406 C 424.734375 214.496094 424.992188 214.238281 425.308594 214.238281 C 425.628906 214.238281 425.886719 214.496094 425.886719 214.816406 Z M 425.886719 214.816406 "/>
<path fill-rule="nonzero" fill="rgb(0%, 0%, 0%)" fill-opacity="1" d="M 547.449219 267.78125 C 547.449219 268.097656 547.1875 268.359375 546.871094 268.359375 C 546.550781 268.359375 546.292969 268.097656 546.292969 267.78125 C 546.292969 267.460938 546.550781 267.203125 546.871094 267.203125 C 547.1875 267.203125 547.449219 267.460938 547.449219 267.78125 Z M 547.449219 267.78125 "/>
<path fill-rule="nonzero" fill="rgb(0%, 0%, 0%)" fill-opacity="1" d="M 549.996094 272.460938 C 549.996094 274.1875 548.597656 275.585938 546.871094 275.585938 C 545.144531 275.585938 543.742188 274.1875 543.742188 272.460938 C 543.742188 270.734375 545.144531 269.332031 546.871094 269.332031 C 548.597656 269.332031 549.996094 270.734375 549.996094 272.460938 Z M 549.996094 272.460938 "/>
<path fill-rule="nonzero" fill="rgb(0%, 0%, 0%)" fill-opacity="1" d="M 542.765625 272.460938 C 542.765625 272.777344 542.507812 273.039062 542.191406 273.039062 C 541.871094 273.039062 541.613281 272.777344 541.613281 272.460938 C 541.613281 272.140625 541.871094 271.882812 542.191406 271.882812 C 542.507812 271.882812 542.765625 272.140625 542.765625 272.460938 Z M 542.765625 272.460938 "/>
<path fill-rule="nonzero" fill="rgb(0%, 0%, 0%)" fill-opacity="1" d="M 547.449219 277.125 C 547.449219 277.445312 547.1875 277.703125 546.871094 277.703125 C 546.550781 277.703125 546.292969 277.445312 546.292969 277.125 C 546.292969 276.804688 546.550781 276.546875 546.871094 276.546875 C 547.1875 276.546875 547.449219 276.804688 547.449219 277.125 Z M 547.449219 277.125 "/>
<path fill-rule="nonzero" fill="rgb(0%, 0%, 0%)" fill-opacity="1" d="M 552.128906 272.460938 C 552.128906 272.777344 551.867188 273.039062 551.550781 273.039062 C 551.230469 273.039062 550.972656 272.777344 550.972656 272.460938 C 550.972656 272.140625 551.230469 271.882812 551.550781 271.882812 C 551.867188 271.882812 552.128906 272.140625 552.128906 272.460938 Z M 552.128906 272.460938 "/>
</svg>
